<svg id="accordion" enable-background="new 0 0 300 300" height="512" viewBox="0 0 300 300" width="512" xmlns="http://www.w3.org/2000/svg"><g><circle cx="174" cy="118" fill="#edebdc" r="92"/><g fill="#4c241d"><ellipse cx="128" cy="64" rx="10" ry="6"/><path d="m134 67.525c-2.209 0-4-1.791-4-4v-21.525c0-2.209 1.791-4 4-4s4 1.791 4 4v21.525c0 2.209-1.791 4-4 4z"/><ellipse cx="176" cy="84" rx="10" ry="6"/><path d="m182 87.525c-2.209 0-4-1.791-4-4v-21.525c0-2.209 1.791-4 4-4s4 1.791 4 4v21.525c0 2.209-1.791 4-4 4z"/><ellipse cx="256" cy="268" rx="10" ry="6"/><path d="m262 271.525c-2.209 0-4-1.791-4-4v-21.525c0-2.209 1.791-4 4-4s4 1.791 4 4v21.525c0 2.209-1.791 4-4 4z"/></g><g><path d="m38 146h52v24h-52z" fill="#fff"/><path d="m90 174h-52c-2.209 0-4-1.791-4-4v-24c0-2.209 1.791-4 4-4h52c2.209 0 4 1.791 4 4v24c0 2.209-1.791 4-4 4zm-48-8h44v-16h-44z" fill="#4c241d"/></g><g><path d="m38 170h52v24h-52z" fill="#fff"/><path d="m90 198h-52c-2.209 0-4-1.791-4-4v-24c0-2.209 1.791-4 4-4h52c2.209 0 4 1.791 4 4v24c0 2.209-1.791 4-4 4zm-48-8h44v-16h-44z" fill="#4c241d"/></g><g><path d="m38 194h52v24h-52z" fill="#fff"/><path d="m90 222h-52c-2.209 0-4-1.791-4-4v-24c0-2.209 1.791-4 4-4h52c2.209 0 4 1.791 4 4v24c0 2.209-1.791 4-4 4zm-48-8h44v-16h-44z" fill="#4c241d"/></g><g><path d="m38 122h52v24h-52z" fill="#fff"/><path d="m90 150h-52c-2.209 0-4-1.791-4-4v-24c0-2.209 1.791-4 4-4h52c2.209 0 4 1.791 4 4v24c0 2.209-1.791 4-4 4zm-48-8h44v-16h-44z" fill="#4c241d"/></g><g><path d="m90 122h-52v-12.92c0-6.119 4.961-11.08 11.08-11.08h40.92z" fill="#fff"/><path d="m90 126h-52c-2.209 0-4-1.791-4-4v-12.92c0-8.314 6.766-15.08 15.08-15.08h40.92c2.209 0 4 1.791 4 4v24c0 2.209-1.791 4-4 4zm-48-8h44v-16h-36.92c-3.904 0-7.08 3.176-7.08 7.08z" fill="#4c241d"/></g><g><path d="m90 242h-40.92c-6.119 0-11.08-4.961-11.08-11.08v-12.92h52z" fill="#fff"/><path d="m90 246h-40.92c-8.314 0-15.08-6.766-15.08-15.08v-12.92c0-2.209 1.791-4 4-4h52c2.209 0 4 1.791 4 4v24c0 2.209-1.791 4-4 4zm-48-24v8.92c0 3.904 3.176 7.08 7.08 7.08h36.92v-16z" fill="#4c241d"/></g><g><path d="m58 138h32v16h-32z" fill="#6b4f5b"/><path d="m90 158h-32c-2.209 0-4-1.791-4-4v-16c0-2.209 1.791-4 4-4h32c2.209 0 4 1.791 4 4v16c0 2.209-1.791 4-4 4zm-28-8h24v-8h-24z" fill="#4c241d"/></g><g><path d="m58 186h32v16h-32z" fill="#6b4f5b"/><path d="m90 206h-32c-2.209 0-4-1.791-4-4v-16c0-2.209 1.791-4 4-4h32c2.209 0 4 1.791 4 4v16c0 2.209-1.791 4-4 4zm-28-8h24v-8h-24z" fill="#4c241d"/></g><g><path d="m114 250-24-8v-144l24-8z" fill="#fc8c29"/><path d="m114 254c-.426 0-.852-.068-1.266-.205l-24-8c-1.632-.545-2.734-2.072-2.734-3.795v-144c0-1.723 1.102-3.25 2.734-3.795l24-8c1.219-.404 2.561-.205 3.604.551 1.045.752 1.662 1.959 1.662 3.244v160c0 1.285-.617 2.492-1.662 3.244-.69.498-1.51.756-2.338.756zm-20-14.883 16 5.334v-148.902l-16 5.334z" fill="#4c241d"/></g><g><path d="m114 90h28v160h-28z" fill="#e66353"/><path d="m142 254h-28c-2.209 0-4-1.791-4-4v-160c0-2.209 1.791-4 4-4h28c2.209 0 4 1.791 4 4v160c0 2.209-1.791 4-4 4zm-24-8h20v-152h-20z" fill="#4c241d"/></g><g><path d="m158 226-16 12v-136l16 12z" fill="#ffce56"/><path d="m142 242c-.609 0-1.223-.139-1.789-.422-1.356-.678-2.211-2.062-2.211-3.578v-136c0-1.516.855-2.9 2.211-3.578 1.352-.682 2.973-.533 4.189.379l16 12c1.008.754 1.6 1.939 1.6 3.199v112c0 1.26-.592 2.445-1.6 3.199l-16 12c-.707.53-1.55.801-2.4.801zm4-132v120l8-6v-108zm12 116h.039z" fill="#4c241d"/></g><g><path d="m158 226 16 12v-136l-16 12z" fill="#ffce56"/><path d="m174 242c-.85 0-1.693-.271-2.4-.801l-16-12c-1.008-.754-1.6-1.939-1.6-3.199v-112c0-1.26.592-2.445 1.6-3.199l16-12c1.211-.912 2.832-1.061 4.189-.379 1.356.678 2.211 2.062 2.211 3.578v136c0 1.516-.855 2.9-2.211 3.578-.566.283-1.18.422-1.789.422zm-12-18 8 6v-120l-8 6z" fill="#4c241d"/></g><g><path d="m190 226-16 12v-136l16 12z" fill="#ffce56"/><path d="m174 242c-.609 0-1.223-.139-1.789-.422-1.356-.678-2.211-2.062-2.211-3.578v-136c0-1.516.855-2.9 2.211-3.578 1.355-.682 2.973-.533 4.189.379l16 12c1.008.754 1.6 1.939 1.6 3.199v112c0 1.26-.592 2.445-1.6 3.199l-16 12c-.707.53-1.55.801-2.4.801zm4-132v120l8-6v-108zm12 116h.039z" fill="#4c241d"/></g><g><path d="m190 226 16 12v-136l-16 12z" fill="#ffce56"/><path d="m206 242c-.85 0-1.693-.271-2.4-.801l-16-12c-1.008-.754-1.6-1.939-1.6-3.199v-112c0-1.26.592-2.445 1.6-3.199l16-12c1.215-.912 2.832-1.061 4.189-.379 1.356.678 2.211 2.062 2.211 3.578v136c0 1.516-.855 2.9-2.211 3.578-.566.283-1.18.422-1.789.422zm-12-18 8 6v-120l-8 6z" fill="#4c241d"/></g><g><path d="m209.651 241.046 27.81 3.257 16.752-143.022-27.809-3.257.93-7.946-19.864-2.327-18.614 158.914 19.864 2.326z" fill="#e66353"/><path d="m208.721 252.992c-.154 0-.311-.01-.465-.027l-19.865-2.328c-2.195-.258-3.766-2.244-3.508-4.438l18.615-158.912c.256-2.197 2.248-3.791 4.438-3.508l19.863 2.326c2.195.256 3.766 2.244 3.508 4.438l-.465 3.973 23.836 2.793c2.195.258 3.766 2.244 3.508 4.438l-16.752 143.021c-.123 1.055-.66 2.016-1.492 2.674-.83.656-1.895.959-2.945.834l-23.838-2.793-.465 3.975c-.123 1.055-.66 2.016-1.492 2.674-.71.559-1.585.86-2.481.86zm-15.428-9.836 11.92 1.396.465-3.973c.123-1.053.66-2.016 1.492-2.674.83-.656 1.895-.959 2.945-.834l23.838 2.793 15.822-135.076-23.836-2.793c-2.195-.258-3.766-2.244-3.508-4.438l.465-3.973-11.918-1.396z" fill="#4c241d"/></g><g><path d="m217.932 127.163h28v88h-28z" fill="#6b4f5b" transform="matrix(.993 .116 -.116 .993 21.488 -25.821)"/><path d="m240.719 220.494c-.154 0-.311-.01-.465-.027l-27.811-3.258c-2.195-.258-3.766-2.244-3.508-4.438l10.238-87.402c.123-1.055.66-2.016 1.492-2.674.834-.656 1.898-.947 2.945-.834l27.809 3.258c2.195.258 3.766 2.244 3.508 4.438l-10.236 87.402c-.123 1.055-.66 2.016-1.492 2.674-.709.56-1.584.861-2.48.861zm-23.373-10.765 19.865 2.328 9.307-79.457-19.863-2.328z" fill="#4c241d"/></g><circle cx="237.176" cy="143.586" fill="#4c241d" r="4.292"/><circle cx="235.315" cy="159.478" fill="#4c241d" r="4.292"/><circle cx="233.453" cy="175.369" fill="#4c241d" r="4.292"/><circle cx="231.592" cy="191.26" fill="#4c241d" r="4.292"/></g></svg>