<?xml version="1.0" encoding="iso-8859-1"?>
<!-- Generator: Adobe Illustrator 19.0.0, SVG Export Plug-In . SVG Version: 6.00 Build 0)  -->
<svg version="1.1" id="Capa_1" xmlns="http://www.w3.org/2000/svg" xmlns:xlink="http://www.w3.org/1999/xlink" x="0px" y="0px"
	 viewBox="0 0 512.001 512.001" style="enable-background:new 0 0 512.001 512.001;" xml:space="preserve">
<path style="fill:#596674;" d="M105.716,438.488v53.65c0,6.828,5.535,12.363,12.363,12.363h73.773
	c6.828,0,12.363-5.535,12.363-12.363v-53.65H105.716z"/>
<path style="fill:#364E66;" d="M135.716,492.138v-53.65h-30v53.65c0,6.828,5.535,12.363,12.362,12.363h30
	C141.251,504.5,135.716,498.965,135.716,492.138z"/>
<path style="fill:#596674;" d="M435.946,438.488v53.65c0,6.828-5.535,12.363-12.363,12.363H349.81
	c-6.828,0-12.363-5.535-12.363-12.363v-53.65H435.946z"/>
<path style="fill:#364E66;" d="M367.448,492.138v-53.65h-30v53.65c0,6.828,5.535,12.363,12.363,12.363h30
	C372.982,504.5,367.448,498.965,367.448,492.138z"/>
<path style="fill:#85CDEA;" d="M474.334,421.72L387.981,38.26c-4.05-17.984-20.023-30.76-38.457-30.76H192.139
	c-18.434,0-34.407,12.776-38.457,30.76L67.328,421.72c-5.541,24.603,13.169,47.994,38.388,47.994h330.23
	C461.165,469.714,479.874,446.323,474.334,421.72z"/>
<path style="fill:#4FB6E0;" d="M87.328,421.72l86.353-383.46c4.05-17.984,20.023-30.76,38.457-30.76h-20
	c-18.434,0-34.407,12.776-38.457,30.76L67.328,421.72c-5.541,24.604,13.169,47.994,38.388,47.994h20
	C100.497,469.714,81.788,446.324,87.328,421.72z"/>
<g>
	<polygon style="fill:#596674;" points="347.752,49.135 292.617,49.135 270.831,238.607 292.617,319.837 408.717,319.837 	"/>
	<polygon style="fill:#596674;" points="249.045,49.135 193.91,49.135 132.945,319.837 249.045,319.837 270.831,238.607 	"/>
</g>
<polygon style="fill:#364E66;" points="193.91,49.135 132.945,319.837 162.945,319.837 223.91,49.135 "/>
<path style="fill:#D2D2D2;" d="M292.617,319.837L76.6,82.532c-8.955-8.955-23.475-8.955-32.43,0s-8.955,23.475,0,32.43
	l204.875,204.875H292.617z"/>
<rect x="249.04" y="49.13" style="fill:#EFEDEE;" width="43.571" height="270.7"/>
<polygon style="fill:#A1A1A1;" points="69.362,140.153 110.663,181.455 139.971,152.147 105.313,114.074 "/>
<path style="fill:#596674;" d="M101.531,78.38l-61.512,61.512c-5.747,5.747-3.775,15.494,3.754,18.555l33.75,13.721l56.285-56.285
	l-13.721-33.75C117.025,74.606,107.278,72.634,101.531,78.38z"/>
<path d="M175.013,375.557v15.973c0,4.143,3.358,7.5,7.5,7.5s7.5-3.357,7.5-7.5v-15.973c0-4.142-3.358-7.5-7.5-7.5
	S175.013,371.415,175.013,375.557z"/>
<path d="M351.522,375.557v15.973c0,4.143,3.358,7.5,7.5,7.5s7.5-3.357,7.5-7.5v-15.973c0-4.142-3.358-7.5-7.5-7.5
	S351.522,371.415,351.522,375.557z"/>
<path d="M286.903,385.482c-3.929,4.495-9.81,7.073-16.135,7.073s-12.207-2.578-16.136-7.074c-2.726-3.119-7.464-3.436-10.583-0.71
	s-3.437,7.464-0.71,10.583c6.778,7.754,16.776,12.202,27.429,12.202c10.654,0,20.651-4.447,27.429-12.202
	c2.726-3.119,2.408-7.857-0.711-10.583C294.366,382.045,289.629,382.363,286.903,385.482z"/>
<path d="M481.587,420.073l-8.141-36.152c-0.91-4.041-4.927-6.579-8.964-5.669c-4.041,0.91-6.579,4.923-5.669,8.964l8.141,36.152
	c2.138,9.491-0.122,19.293-6.199,26.891s-15.143,11.956-24.872,11.956h-330.23c-9.729,0-18.795-4.358-24.872-11.956
	s-8.336-17.399-6.199-26.891l49.134-218.189l22.281,22.281c0,0-20.4,90.585-20.432,90.729c-1.04,4.62,2.586,9.148,7.317,9.148
	c0,0,275.587,0,275.77,0c4.737,0,8.357-4.529,7.317-9.147L355.006,47.487c-0.771-3.422-3.81-5.853-7.317-5.853H193.846
	c-3.507,0-6.546,2.431-7.317,5.853l-26.131,116.03l-21.886-24.043l22.422-99.566C164.238,25.243,177.043,15,192.076,15H349.46
	c15.033,0,27.839,10.242,31.141,24.908l71.456,317.308c0.91,4.041,4.923,6.58,8.964,5.669c4.041-0.91,6.579-4.923,5.669-8.964
	L395.234,36.612C390.38,15.056,371.556,0,349.459,0H192.076c-22.096,0-40.919,15.056-45.775,36.612l-13.078,58.076
	c0,0-6.245-15.361-6.252-15.379c-4.994-12.284-21.434-15.604-30.806-6.232l-9.471,9.47c-7.303-8.022-14.924-14.232-26.372-14.232
	c-8.128,0-15.77,3.165-21.518,8.913c-11.719,11.72-11.703,31.335,0,43.037l5.086,5.086c0,0-9.23,9.23-9.238,9.238
	c-9.389,9.389-6.034,25.819,6.232,30.806c0,0,33.741,13.717,33.75,13.721c2.668,1.085,5.985,0.499,8.128-1.645l6.624-6.624
	l21.78,21.78L59.948,420.072c-3.144,13.962,0.179,28.379,9.118,39.556c7.354,9.195,17.686,15.153,29.086,16.981v15.529
	c0,10.952,8.91,19.863,19.862,19.863h73.773c10.952,0,19.862-8.91,19.862-19.863v-14.923h118.233v14.923
	c0,10.952,8.91,19.863,19.862,19.863h73.773c10.952,0,19.862-8.91,19.862-19.863v-15.529c11.401-1.828,21.732-7.786,29.086-16.981
	C481.408,448.452,484.731,434.034,481.587,420.073z M158.547,240.009l72.328,72.328h-88.616L158.547,240.009z M399.276,312.337
	h-99.223V56.635h41.637L399.276,312.337z M172.725,177.058l27.12-120.423h41.637v104.934c0,4.142,3.358,7.5,7.5,7.5
	s7.5-3.358,7.5-7.5V56.635h28.571v243.821l-28.571-31.387v-77.501c0-4.142-3.358-7.5-7.5-7.5s-7.5,3.358-7.5,7.5v61.022
	L172.725,177.058z M49.41,109.658c-5.951-5.951-5.947-15.876,0-21.823c5.905-5.906,15.752-5.952,21.71-0.112l4.955,5.443
	l-21.579,21.579C54.496,114.745,49.414,109.662,49.41,109.658z M75.675,163.347c0,0-29.141-11.847-29.143-11.848
	c-2.539-1.034-3.2-4.376-1.273-6.303c0,0,61.512-61.513,61.514-61.514c1.937-1.934,5.274-1.252,6.302,1.277l11.848,29.141
	L75.675,163.347z M119.435,140.8l156.149,171.537h-23.496L99.993,160.242L119.435,140.8z M196.651,492.138
	c0,2.681-2.181,4.863-4.862,4.863h-73.773c-2.681,0-4.862-2.181-4.862-4.863v-14.923h83.498v14.923H196.651z M428.382,492.138
	c0,2.681-2.181,4.863-4.862,4.863h-73.773c-2.681,0-4.862-2.181-4.862-4.863v-14.923h83.498v14.923H428.382z"/>
<g>
</g>
<g>
</g>
<g>
</g>
<g>
</g>
<g>
</g>
<g>
</g>
<g>
</g>
<g>
</g>
<g>
</g>
<g>
</g>
<g>
</g>
<g>
</g>
<g>
</g>
<g>
</g>
<g>
</g>
</svg>
